<?xml version="1.0" encoding="UTF-8" standalone="no"?>
<svg
   viewBox="0 0 24 24"
   version="1.1"
   id="svg1"
   sodipodi:docname="impl_icon.svg"
   inkscape:version="1.3-beta (cedbd6c6ff, 2023-05-28)"
   xmlns:inkscape="http://www.inkscape.org/namespaces/inkscape"
   xmlns:sodipodi="http://sodipodi.sourceforge.net/DTD/sodipodi-0.dtd"
   xmlns="http://www.w3.org/2000/svg"
   xmlns:svg="http://www.w3.org/2000/svg">
  <defs
     id="defs1" />
  <sodipodi:namedview
     id="namedview1"
     pagecolor="#ffffff"
     bordercolor="#000000"
     borderopacity="0.25"
     inkscape:showpageshadow="2"
     inkscape:pageopacity="0.0"
     inkscape:pagecheckerboard="0"
     inkscape:deskcolor="#d1d1d1"
     showgrid="true"
     inkscape:zoom="25.161216"
     inkscape:cx="9.3198993"
     inkscape:cy="12.22119"
     inkscape:window-width="1920"
     inkscape:window-height="1009"
     inkscape:window-x="-8"
     inkscape:window-y="-8"
     inkscape:window-maximized="1"
     inkscape:current-layer="svg1">
    <inkscape:grid
       id="grid2"
       units="px"
       originx="0"
       originy="0"
       spacingx="1"
       spacingy="1"
       empcolor="#0099e5"
       empopacity="0.30196078"
       color="#0099e5"
       opacity="0.14901961"
       empspacing="5"
       dotted="false"
       gridanglex="30"
       gridanglez="30"
       visible="true" />
  </sodipodi:namedview>
  <path
     id="path4"
     style="fill:#f2f2f2"
     d="M 12.011719 1.9980469 C 11.466444 1.9971844 10.91709 2.0398245 10.369141 2.1308594 C 10.396241 3.2324183 9.8689722 4.2243554 8.9394531 4.609375 C 8.0099341 4.9943946 6.9355805 4.6671898 6.1757812 3.8691406 C 5.2721222 4.51531 4.4986831 5.2979521 3.8710938 6.1757812 C 4.668673 6.9355405 4.9942846 8.0101841 4.609375 8.9394531 C 4.2244554 9.8687222 3.2340214 10.395941 2.1328125 10.369141 C 1.9558727 11.43364 1.9507427 12.53496 2.1328125 13.630859 C 3.2343714 13.603859 4.2243554 14.133001 4.609375 15.0625 C 4.9943946 15.992099 4.6671898 17.066373 3.8691406 17.826172 C 4.51531 18.729771 5.2979521 19.50326 6.1757812 20.130859 C 6.9355305 19.33326 8.0101841 19.005725 8.9394531 19.390625 C 9.8687222 19.775525 10.395941 20.765989 10.369141 21.867188 C 11.43364 22.044187 12.53496 22.05124 13.630859 21.869141 C 13.603859 20.767542 14.133001 19.775625 15.0625 19.390625 C 15.991999 19.005625 17.066373 19.33286 17.826172 20.130859 C 18.729871 19.48476 19.50326 18.702118 20.130859 17.824219 C 19.33326 17.06452 19.007679 15.991799 19.392578 15.0625 C 19.777478 14.133301 20.767942 13.604159 21.869141 13.630859 C 22.04604 12.56636 22.05114 11.46504 21.869141 10.369141 C 20.767542 10.396241 19.777578 9.8689722 19.392578 8.9394531 C 19.007579 8.0099341 19.33286 6.9355705 20.130859 6.1757812 C 19.48476 5.2721122 18.702118 4.49673 17.824219 3.8691406 C 17.06452 4.6667198 15.991799 4.9942946 15.0625 4.609375 C 14.133301 4.2244554 13.604059 3.2340114 13.630859 2.1328125 C 13.09861 2.0443376 12.556993 1.9989094 12.011719 1.9980469 z M 12 9 C 13.656798 9 15 10.343102 15 12 C 15 13.109634 14.395696 14.076718 13.5 14.595703 L 13.5 17 L 10.5 17 L 10.5 14.595703 C 9.6045196 14.07666 9 13.109463 9 12 C 9 10.343102 10.343102 9 12 9 z " />
</svg>
